<svg version="1.1" id="Layer_1" xmlns="http://www.w3.org/2000/svg" xmlns:xlink="http://www.w3.org/1999/xlink" x="0px" y="0px"
	 width="100%" viewBox="0 0 688 688" enable-background="new 0 0 688 688" xml:space="preserve">
<path fill="#000000" opacity="1.000000" stroke="none" 
	d="
M493.068970,53.846767 
	C542.290100,78.634979 583.310974,112.521065 615.899170,156.706497 
	C647.521912,199.582916 667.768921,247.200745 677.105835,299.511536 
	C681.896606,326.352356 682.462524,353.423584 680.465820,380.591125 
	C677.148132,425.734039 664.673401,468.252960 643.653870,508.233276 
	C625.488098,542.785706 601.569397,572.970276 572.525024,599.024353 
	C540.527100,627.727844 504.275269,649.395325 463.673859,663.607483 
	C435.893677,673.331726 407.337677,679.265259 377.922852,681.492615 
	C317.493164,686.068542 260.080902,674.983521 206.067001,647.867493 
	C162.832474,626.162903 125.607559,596.616516 95.130501,558.688232 
	C70.103165,527.542175 51.148540,493.234161 38.982666,455.219238 
	C27.051430,417.937561 20.946577,379.691040 22.988813,340.542786 
	C26.741728,268.601929 50.185909,203.745819 95.606323,147.496429 
	C137.627502,95.456718 190.153366,57.918438 253.647797,36.271778 
	C276.550598,28.463705 300.142181,23.721098 324.292206,21.563269 
	C383.522308,16.270994 439.482574,27.792334 493.068970,53.846767 
M499.307526,619.741272 
	C534.040283,600.658386 563.659729,575.579773 588.852966,544.950317 
	C632.655212,491.696320 653.555847,430.057800 656.530457,361.898529 
	C657.831726,332.080750 653.477173,302.704865 645.303711,274.050812 
	C619.382690,183.177963 562.291138,117.891594 478.656830,75.965752 
	C426.369110,49.753906 370.511902,40.689178 312.155426,49.156582 
	C280.718079,53.718071 250.668839,62.669922 222.514557,77.249420 
	C165.369843,106.841393 119.716927,148.792511 87.555862,204.905731 
	C62.540436,248.551559 49.990944,295.686462 48.374588,345.809967 
	C47.767506,364.635712 49.111557,383.345856 52.162178,401.989258 
	C58.558720,441.080841 71.524040,477.770782 92.490395,511.342377 
	C130.175735,571.684692 183.092819,613.677063 249.435883,638.736755 
	C296.165802,656.388000 344.589874,660.731201 393.932068,654.434265 
	C430.961121,649.708618 465.856079,637.963196 499.307526,619.741272 
z"/>
<path fill="#000000" opacity="1.000000" stroke="none" 
	d="
M509.135284,426.000000 
	C509.089905,461.988800 508.979584,497.477753 509.039215,532.966370 
	C509.056549,543.294067 505.023682,551.006287 495.693085,555.649536 
	C473.777649,566.555603 451.875854,577.490723 429.881958,588.236877 
	C410.884277,597.519287 391.681274,606.383667 372.733032,615.764160 
	C360.054169,622.040955 347.791046,622.236816 334.853729,616.275940 
	C298.704742,599.620361 262.838654,582.392883 227.282364,564.512756 
	C221.630249,561.670532 215.910767,558.962097 210.262604,556.112183 
	C200.803589,551.339478 196.688065,543.599243 196.701218,533.028748 
	C196.794693,457.884308 196.735687,382.739685 196.726395,307.595123 
	C196.724548,292.599548 197.381851,277.567261 196.543808,262.618713 
	C195.711288,247.768799 205.684158,240.914505 219.280823,247.761078 
	C220.359970,243.101837 223.540207,241.348969 228.064178,241.811798 
	C229.464172,241.955017 230.023819,241.197418 230.818985,240.214676 
	C235.072418,234.957916 237.273529,234.469803 243.146561,237.954300 
	C261.907623,249.085327 280.549377,260.417664 299.325287,271.523376 
	C316.237152,281.526489 333.286072,291.297638 350.214325,301.273315 
	C352.256134,302.476501 353.731873,302.273102 355.678375,301.144592 
	C390.688324,280.846802 425.591156,260.370789 460.033752,239.118286 
	C462.546265,237.567963 464.910736,235.446320 468.178558,235.736465 
	C472.363678,236.108047 474.012817,239.039139 474.829010,242.971008 
	C480.037476,241.501251 484.685425,241.357605 485.882660,248.262375 
	C490.436707,246.478668 494.435028,243.837479 499.421173,245.123566 
	C504.298492,246.381577 507.309509,249.305908 508.277466,254.181030 
	C508.760559,256.614044 509.046936,259.130096 509.045807,261.608429 
	C509.033142,289.599396 509.498016,317.605591 508.722626,345.576874 
	C507.983429,372.241821 509.777588,398.858124 509.135284,426.000000 
M221.348984,457.499908 
	C221.348877,480.987152 221.395218,504.474548 221.295868,527.961365 
	C221.281830,531.278809 221.974533,533.446655 225.298660,535.039734 
	C258.619598,551.008911 291.856232,567.154053 325.141968,583.196899 
	C326.540894,583.871216 327.964386,585.080078 329.822815,584.252625 
	C330.944977,581.710938 330.641418,579.021729 330.643646,576.388245 
	C330.667145,548.736755 330.664276,521.085266 330.662567,493.433777 
	C330.659241,439.130219 330.645020,384.826630 330.665802,330.523071 
	C330.666931,327.617035 330.691681,325.222717 327.318970,323.606232 
	C294.292694,307.777039 261.357910,291.757019 228.376389,275.834229 
	C226.504807,274.930664 224.663895,273.518463 221.349457,274.585449 
	C221.349457,335.066162 221.349457,395.783020 221.348984,457.499908 
M483.759888,390.500000 
	C483.759888,351.599213 483.759888,312.698425 483.759888,273.640137 
	C479.564789,273.276184 477.037109,275.085541 474.435974,276.355316 
	C443.006042,291.698303 411.640656,307.174011 380.166107,322.424561 
	C376.465576,324.217651 375.134125,326.413330 375.138275,330.454010 
	C375.223511,413.268799 375.188080,496.083679 375.216370,578.898560 
	C375.217041,580.827393 374.748291,582.881775 375.947205,584.772400 
	C378.485992,585.140442 380.418335,583.613403 382.445068,582.629211 
	C414.506195,567.061157 446.514069,551.383057 478.616516,535.900940 
	C482.454590,534.049927 483.878754,531.734070 483.865356,527.470093 
	C483.723297,482.147034 483.766602,436.823456 483.759888,390.500000 
z"/>
<path fill="#000000" opacity="1.000000" stroke="none" 
	d="
M485.055328,112.180618 
	C493.951569,138.722763 489.992096,162.252258 469.828094,181.833588 
	C460.133759,191.247818 448.204346,196.865570 434.456360,197.315643 
	C429.435547,197.480011 427.741882,199.176666 428.164978,204.107880 
	C428.562378,208.739761 428.305054,213.433853 428.230957,218.098892 
	C428.081177,227.524536 422.677795,234.284973 413.495911,236.281876 
	C410.757507,236.877411 407.880890,237.051819 405.067261,237.054749 
	C369.736969,237.091507 334.406586,237.054810 299.076233,237.054047 
	C292.545746,237.053909 286.545959,235.835205 281.780548,230.801117 
	C277.617126,226.402939 277.368591,220.902298 277.058533,215.427475 
	C276.832703,211.439850 276.592438,207.382919 277.070618,203.443314 
	C277.663025,198.562302 275.417847,197.473267 271.186768,197.358200 
	C256.025543,196.945831 243.552521,190.265839 233.185303,179.723816 
	C201.447189,147.450607 214.347488,91.791359 257.107544,76.799690 
	C275.916412,70.205307 294.440155,71.104958 311.858948,81.636780 
	C315.101501,83.597305 317.179260,83.316483 320.049866,80.732193 
	C344.570312,58.657490 379.781158,54.245598 408.798309,69.832016 
	C414.215088,72.741608 419.584595,72.689354 425.199982,72.647278 
	C446.273651,72.489395 463.224792,80.914345 476.449158,97.148872 
	C480.059357,101.580841 482.705078,106.574188 485.055328,112.180618 
M247.008743,116.518898 
	C244.135742,120.927757 242.825531,125.805611 241.995041,130.989014 
	C239.835342,144.468460 244.280334,155.327164 254.825150,163.556305 
	C264.851929,171.381165 275.978241,173.057526 287.523773,167.072006 
	C292.455902,164.515030 295.735565,166.187805 298.732971,169.883026 
	C301.098755,172.799606 302.449615,176.059738 302.382141,179.974594 
	C302.241516,188.136337 302.685974,196.320221 302.247559,204.460419 
	C301.963898,209.727844 303.894775,210.843033 308.802338,210.806107 
	C337.125885,210.592926 365.451874,210.721375 393.776978,210.687408 
	C404.004669,210.675140 402.634399,211.673996 402.873749,201.564850 
	C403.078308,192.923203 401.870148,184.202545 403.693665,175.653458 
	C405.441772,167.457809 411.671173,164.495178 419.134399,167.861038 
	C425.546661,170.752930 432.238373,171.750381 439.067841,169.810669 
	C461.015472,163.577103 470.949036,138.774734 459.601654,118.777977 
	C450.809418,103.283936 433.764893,96.031944 415.536713,100.303177 
	C410.891571,101.391632 407.165985,101.350899 403.132416,97.973320 
	C391.684326,88.387070 378.351257,84.511559 363.530029,87.400856 
	C347.438080,90.537880 334.966522,98.840042 327.522522,113.893982 
	C325.638184,117.704666 325.726471,121.991196 324.324799,125.904930 
	C321.854553,132.802063 316.617706,136.184586 309.730316,135.304016 
	C303.783417,134.543701 299.109772,129.035141 298.632111,122.324226 
	C298.354248,118.420296 298.773987,114.551750 300.523773,111.116669 
	C302.639618,106.962944 300.724426,105.023598 297.320953,103.310997 
	C282.923218,96.066154 259.131195,96.898544 247.008743,116.518898 
z"/>
<path fill="#000000" opacity="1.000000" stroke="none" 
	d="
M596.348816,406.000061 
	C596.347778,438.833252 596.359375,471.166412 596.340271,503.499573 
	C596.329773,521.230591 583.993469,534.280151 567.205811,534.382263 
	C549.946350,534.487244 536.697388,521.235535 536.669495,503.614685 
	C536.614685,468.948273 536.568542,434.281097 536.779236,399.615814 
	C536.813232,394.031586 535.474915,390.194519 530.256897,387.477753 
	C523.521545,383.970886 520.146729,377.824982 519.918579,370.320892 
	C518.947754,338.379730 520.473450,306.744110 531.278687,276.182312 
	C539.787598,252.115417 553.322815,231.477936 572.270996,214.392471 
	C573.874817,212.946335 575.628601,211.649521 577.403503,210.413696 
	C581.485962,207.571106 585.891296,206.445389 590.567810,208.778687 
	C595.382324,211.180878 596.422791,215.445831 596.414978,220.502533 
	C596.328674,276.335358 596.351990,332.168396 596.346130,388.001343 
	C596.345520,393.834259 596.347717,399.667145 596.348816,406.000061 
M559.788879,391.509827 
	C562.479919,395.511292 566.545288,393.706573 569.817749,393.295868 
	C572.887573,392.910583 571.703064,389.484558 571.705383,387.347076 
	C571.752014,345.183044 571.729797,303.018921 571.678284,260.854828 
	C571.676147,259.106781 572.197021,257.250885 570.893433,255.046173 
	C564.943298,261.619446 561.513672,269.310028 558.017517,276.959106 
	C545.456177,304.441833 544.428406,333.635468 545.238647,363.102264 
	C545.281128,364.646637 545.493347,365.963257 547.090576,366.868317 
	C556.354004,372.117432 559.881409,380.415649 559.788879,391.509827 
M571.978027,435.502991 
	C571.963562,431.508545 571.989685,427.513306 571.913391,423.520020 
	C571.885620,422.067322 572.004272,420.511902 570.310730,419.640472 
	C565.315796,417.070251 560.309204,419.942352 560.307739,425.435669 
	C560.301025,450.402679 560.297180,475.369720 560.305054,500.336731 
	C560.305542,501.831696 560.207520,503.371399 560.517395,504.812439 
	C561.220581,508.081818 563.403381,510.318115 566.685303,510.394806 
	C569.663452,510.464325 571.450623,508.195129 572.022461,505.327301 
	C572.408936,503.389069 572.677856,501.363220 572.569214,499.400330 
	C571.408813,478.441620 572.262207,457.466705 571.978027,435.502991 
z"/>
<path fill="#000000" opacity="1.000000" stroke="none" 
	d="
M179.241806,225.102020 
	C179.218613,256.407166 179.134216,287.227356 179.213440,318.047180 
	C179.238403,327.754822 177.667175,336.949158 172.102707,345.111359 
	C170.495636,347.468658 170.263107,350.001007 170.257751,352.705902 
	C170.161270,401.351288 170.021317,449.996643 169.934113,498.642059 
	C169.917313,508.008270 168.465668,516.812073 162.095123,524.282837 
	C155.178329,532.394165 142.291824,536.493103 132.173111,533.437927 
	C120.030556,529.771606 112.725021,521.876343 110.623543,509.193054 
	C109.654198,503.342712 110.601265,497.564148 110.604118,491.753448 
	C110.626266,446.606293 110.600983,401.458923 110.756180,356.312195 
	C110.774384,351.016724 110.062302,346.162109 107.495285,341.477448 
	C104.232109,335.522461 102.983643,329.005981 102.987740,322.229004 
	C103.005974,292.076141 102.978981,261.923187 103.041489,231.770432 
	C103.050797,227.280365 103.408592,222.788635 103.678955,218.302124 
	C104.045197,212.224625 109.368935,207.498871 115.416786,207.808853 
	C121.186310,208.104538 125.320335,212.566925 125.326302,218.822052 
	C125.357315,251.308243 125.391312,283.794769 125.253540,316.280426 
	C125.230904,321.617767 126.112274,326.475708 129.026428,330.988892 
	C133.119125,337.327209 134.708862,344.205658 134.436737,351.854553 
	C134.004623,364.000732 134.381760,376.174011 134.275528,388.334595 
	C134.246017,391.711853 135.044037,393.782990 138.944519,393.703003 
	C142.516235,393.629730 145.969208,394.228027 146.258591,388.833649 
	C146.937531,376.176910 146.681641,363.517731 146.529236,350.869293 
	C146.441086,343.554321 148.169724,337.007599 152.186707,331.062164 
	C156.260132,325.033142 157.755997,318.533478 157.711197,311.258240 
	C157.522415,280.605865 157.676529,249.951492 157.646393,219.297913 
	C157.642303,215.134537 158.832962,211.637909 162.679886,209.722580 
	C166.404114,207.868378 170.294083,207.449081 174.109406,209.793442 
	C177.425354,211.830948 178.502960,215.123062 179.039276,218.634140 
	C179.338501,220.593109 179.190369,222.620422 179.241806,225.102020 
M146.112778,481.593567 
	C146.285416,462.960785 146.496002,444.328217 146.606628,425.695068 
	C146.638214,420.371735 145.250061,419.528290 139.508087,419.221252 
	C134.590607,418.958252 134.215103,421.594635 134.218491,425.417999 
	C134.240997,450.744751 134.126099,476.071625 134.074631,501.398468 
	C134.071930,502.726776 134.124863,504.075287 134.351379,505.379791 
	C134.823563,508.099274 136.419373,510.118835 139.168182,510.418152 
	C142.113678,510.738861 144.321945,508.987000 145.405563,506.348297 
	C146.078384,504.710022 146.274353,502.782654 146.285019,500.982666 
	C146.321457,494.833069 146.181091,488.682404 146.112778,481.593567 
z"/>
<path fill="#000000" opacity="1.000000" stroke="none" 
	d="
M151.291138,306.887634 
	C151.271194,310.689270 151.481155,314.024536 149.712830,317.084900 
	C147.324799,321.217682 143.163071,323.219391 138.791138,321.995209 
	C134.311386,320.740845 131.651306,317.866821 131.650955,313.008087 
	C131.648636,281.228546 131.613785,249.448868 131.714249,217.669632 
	C131.731842,212.101501 135.648514,208.700089 141.433441,208.554886 
	C146.784943,208.420547 150.692886,211.748276 151.249130,217.059219 
	C151.438919,218.871292 151.329712,220.716415 151.329071,222.546448 
	C151.319138,250.499481 151.304550,278.452515 151.291138,306.887634 
z"/>
</svg>